%TF.GenerationSoftware,KiCad,Pcbnew,10.0.5*%
%TF.CreationDate,2026-09-18T19:05:55+05:30*%
%TF.ProjectId,motor driver,6d6f746f-7220-4647-9269-7665722e6b69,rev?*%
%TF.SameCoordinates,Original*%
%TF.FileFunction,Soldermask,Top*%
%TF.FilePolarity,Negative*%
%FSLAX46Y46*%
G04 Gerber Fmt 4.6, Leading zero omitted, Abs format (unit mm)*
G04 Created by KiCad (PCBNEW 10.0.5) date 2026-09-18 19:05:55*
%MOMM*%
%LPD*%
G01*
G04 APERTURE LIST*
G04 Aperture macros list*
%AMRoundRect*
0 Rectangle with rounded corners*
0 $1 Rounding radius*
0 $2 $3 $4 $5 $6 $7 $8 $9 X,Y pos of 4 corners*
0 Add a 4 corners polygon primitive as box body*
4,1,4,$2,$3,$4,$5,$6,$7,$8,$9,$2,$3,0*
0 Add four circle primitives for the rounded corners*
1,1,$1+$1,$2,$3*
1,1,$1+$1,$4,$5*
1,1,$1+$1,$6,$7*
1,1,$1+$1,$8,$9*
0 Add four rect primitives between the rounded corners*
20,1,$1+$1,$2,$3,$4,$5,0*
20,1,$1+$1,$4,$5,$6,$7,0*
20,1,$1+$1,$6,$7,$8,$9,0*
20,1,$1+$1,$8,$9,$2,$3,0*%
G04 Aperture macros list end*
%ADD10RoundRect,0.243750X0.243750X0.456250X-0.243750X0.456250X-0.243750X-0.456250X0.243750X-0.456250X0*%
%ADD11RoundRect,0.250000X-0.262500X-0.450000X0.262500X-0.450000X0.262500X0.450000X-0.262500X0.450000X0*%
%ADD12R,1.700000X1.700000*%
%ADD13C,1.700000*%
%ADD14RoundRect,0.250000X-0.785000X-0.945000X0.785000X-0.945000X0.785000X0.945000X-0.785000X0.945000X0*%
%ADD15RoundRect,0.250000X-0.475000X0.250000X-0.475000X-0.250000X0.475000X-0.250000X0.475000X0.250000X0*%
%ADD16RoundRect,0.250000X-0.250000X-0.475000X0.250000X-0.475000X0.250000X0.475000X-0.250000X0.475000X0*%
%ADD17RoundRect,0.100000X-0.687500X-0.100000X0.687500X-0.100000X0.687500X0.100000X-0.687500X0.100000X0*%
%ADD18R,2.460000X2.310000*%
G04 APERTURE END LIST*
D10*
%TO.C,D1*%
X137062500Y-89000000D03*
X138937500Y-89000000D03*
%TD*%
D11*
%TO.C,R1*%
X142567500Y-89000000D03*
X144392500Y-89000000D03*
%TD*%
D12*
%TO.C,J2*%
X155000000Y-89300000D03*
D13*
X155000000Y-91840000D03*
X155000000Y-94380000D03*
X155000000Y-96920000D03*
X155000000Y-99460000D03*
X155000000Y-102000000D03*
%TD*%
D12*
%TO.C,J1*%
X132795000Y-89795000D03*
D13*
X132795000Y-92335000D03*
X132795000Y-94875000D03*
X132795000Y-97415000D03*
X132795000Y-99955000D03*
X132795000Y-102495000D03*
%TD*%
D14*
%TO.C,C3*%
X141535000Y-102000000D03*
X146475000Y-102000000D03*
%TD*%
D15*
%TO.C,C2*%
X151000000Y-94050000D03*
X151000000Y-95950000D03*
%TD*%
D16*
%TO.C,C1*%
X148050000Y-89000000D03*
X149950000Y-89000000D03*
%TD*%
D17*
%TO.C,U1*%
X147000000Y-93000000D03*
X147000000Y-93650000D03*
X147000000Y-94300000D03*
X147000000Y-94950000D03*
X147000000Y-95600000D03*
X147000000Y-96250000D03*
X147000000Y-96900000D03*
X147000000Y-97550000D03*
X141275000Y-97550000D03*
X141275000Y-96900000D03*
X141275000Y-96250000D03*
X141275000Y-95600000D03*
X141275000Y-94950000D03*
X141275000Y-94300000D03*
X141275000Y-93650000D03*
X141275000Y-93000000D03*
D18*
X144137500Y-95275000D03*
%TD*%
M02*
