%TF.GenerationSoftware,KiCad,Pcbnew,10.0.5*%
%TF.CreationDate,2026-09-18T19:05:55+05:30*%
%TF.ProjectId,motor driver,6d6f746f-7220-4647-9269-7665722e6b69,rev?*%
%TF.SameCoordinates,Original*%
%TF.FileFunction,Legend,Top*%
%TF.FilePolarity,Positive*%
%FSLAX46Y46*%
G04 Gerber Fmt 4.6, Leading zero omitted, Abs format (unit mm)*
G04 Created by KiCad (PCBNEW 10.0.5) date 2026-09-18 19:05:55*
%MOMM*%
%LPD*%
G01*
G04 APERTURE LIST*
%ADD10C,0.150000*%
%ADD11C,0.120000*%
G04 APERTURE END LIST*
D10*
X137261905Y-91454819D02*
X137261905Y-90454819D01*
X137261905Y-90454819D02*
X137500000Y-90454819D01*
X137500000Y-90454819D02*
X137642857Y-90502438D01*
X137642857Y-90502438D02*
X137738095Y-90597676D01*
X137738095Y-90597676D02*
X137785714Y-90692914D01*
X137785714Y-90692914D02*
X137833333Y-90883390D01*
X137833333Y-90883390D02*
X137833333Y-91026247D01*
X137833333Y-91026247D02*
X137785714Y-91216723D01*
X137785714Y-91216723D02*
X137738095Y-91311961D01*
X137738095Y-91311961D02*
X137642857Y-91407200D01*
X137642857Y-91407200D02*
X137500000Y-91454819D01*
X137500000Y-91454819D02*
X137261905Y-91454819D01*
X138785714Y-91454819D02*
X138214286Y-91454819D01*
X138500000Y-91454819D02*
X138500000Y-90454819D01*
X138500000Y-90454819D02*
X138404762Y-90597676D01*
X138404762Y-90597676D02*
X138309524Y-90692914D01*
X138309524Y-90692914D02*
X138214286Y-90740533D01*
X143833333Y-91454819D02*
X143500000Y-90978628D01*
X143261905Y-91454819D02*
X143261905Y-90454819D01*
X143261905Y-90454819D02*
X143642857Y-90454819D01*
X143642857Y-90454819D02*
X143738095Y-90502438D01*
X143738095Y-90502438D02*
X143785714Y-90550057D01*
X143785714Y-90550057D02*
X143833333Y-90645295D01*
X143833333Y-90645295D02*
X143833333Y-90788152D01*
X143833333Y-90788152D02*
X143785714Y-90883390D01*
X143785714Y-90883390D02*
X143738095Y-90931009D01*
X143738095Y-90931009D02*
X143642857Y-90978628D01*
X143642857Y-90978628D02*
X143261905Y-90978628D01*
X144785714Y-91454819D02*
X144214286Y-91454819D01*
X144500000Y-91454819D02*
X144500000Y-90454819D01*
X144500000Y-90454819D02*
X144404762Y-90597676D01*
X144404762Y-90597676D02*
X144309524Y-90692914D01*
X144309524Y-90692914D02*
X144214286Y-90740533D01*
X151666666Y-88454819D02*
X151666666Y-89169104D01*
X151666666Y-89169104D02*
X151619047Y-89311961D01*
X151619047Y-89311961D02*
X151523809Y-89407200D01*
X151523809Y-89407200D02*
X151380952Y-89454819D01*
X151380952Y-89454819D02*
X151285714Y-89454819D01*
X152095238Y-88550057D02*
X152142857Y-88502438D01*
X152142857Y-88502438D02*
X152238095Y-88454819D01*
X152238095Y-88454819D02*
X152476190Y-88454819D01*
X152476190Y-88454819D02*
X152571428Y-88502438D01*
X152571428Y-88502438D02*
X152619047Y-88550057D01*
X152619047Y-88550057D02*
X152666666Y-88645295D01*
X152666666Y-88645295D02*
X152666666Y-88740533D01*
X152666666Y-88740533D02*
X152619047Y-88883390D01*
X152619047Y-88883390D02*
X152047619Y-89454819D01*
X152047619Y-89454819D02*
X152666666Y-89454819D01*
X135666666Y-91454819D02*
X135666666Y-92169104D01*
X135666666Y-92169104D02*
X135619047Y-92311961D01*
X135619047Y-92311961D02*
X135523809Y-92407200D01*
X135523809Y-92407200D02*
X135380952Y-92454819D01*
X135380952Y-92454819D02*
X135285714Y-92454819D01*
X136666666Y-92454819D02*
X136095238Y-92454819D01*
X136380952Y-92454819D02*
X136380952Y-91454819D01*
X136380952Y-91454819D02*
X136285714Y-91597676D01*
X136285714Y-91597676D02*
X136190476Y-91692914D01*
X136190476Y-91692914D02*
X136095238Y-91740533D01*
X143838333Y-99809580D02*
X143790714Y-99857200D01*
X143790714Y-99857200D02*
X143647857Y-99904819D01*
X143647857Y-99904819D02*
X143552619Y-99904819D01*
X143552619Y-99904819D02*
X143409762Y-99857200D01*
X143409762Y-99857200D02*
X143314524Y-99761961D01*
X143314524Y-99761961D02*
X143266905Y-99666723D01*
X143266905Y-99666723D02*
X143219286Y-99476247D01*
X143219286Y-99476247D02*
X143219286Y-99333390D01*
X143219286Y-99333390D02*
X143266905Y-99142914D01*
X143266905Y-99142914D02*
X143314524Y-99047676D01*
X143314524Y-99047676D02*
X143409762Y-98952438D01*
X143409762Y-98952438D02*
X143552619Y-98904819D01*
X143552619Y-98904819D02*
X143647857Y-98904819D01*
X143647857Y-98904819D02*
X143790714Y-98952438D01*
X143790714Y-98952438D02*
X143838333Y-99000057D01*
X144171667Y-98904819D02*
X144790714Y-98904819D01*
X144790714Y-98904819D02*
X144457381Y-99285771D01*
X144457381Y-99285771D02*
X144600238Y-99285771D01*
X144600238Y-99285771D02*
X144695476Y-99333390D01*
X144695476Y-99333390D02*
X144743095Y-99381009D01*
X144743095Y-99381009D02*
X144790714Y-99476247D01*
X144790714Y-99476247D02*
X144790714Y-99714342D01*
X144790714Y-99714342D02*
X144743095Y-99809580D01*
X144743095Y-99809580D02*
X144695476Y-99857200D01*
X144695476Y-99857200D02*
X144600238Y-99904819D01*
X144600238Y-99904819D02*
X144314524Y-99904819D01*
X144314524Y-99904819D02*
X144219286Y-99857200D01*
X144219286Y-99857200D02*
X144171667Y-99809580D01*
X151359580Y-92166666D02*
X151407200Y-92214285D01*
X151407200Y-92214285D02*
X151454819Y-92357142D01*
X151454819Y-92357142D02*
X151454819Y-92452380D01*
X151454819Y-92452380D02*
X151407200Y-92595237D01*
X151407200Y-92595237D02*
X151311961Y-92690475D01*
X151311961Y-92690475D02*
X151216723Y-92738094D01*
X151216723Y-92738094D02*
X151026247Y-92785713D01*
X151026247Y-92785713D02*
X150883390Y-92785713D01*
X150883390Y-92785713D02*
X150692914Y-92738094D01*
X150692914Y-92738094D02*
X150597676Y-92690475D01*
X150597676Y-92690475D02*
X150502438Y-92595237D01*
X150502438Y-92595237D02*
X150454819Y-92452380D01*
X150454819Y-92452380D02*
X150454819Y-92357142D01*
X150454819Y-92357142D02*
X150502438Y-92214285D01*
X150502438Y-92214285D02*
X150550057Y-92166666D01*
X150550057Y-91785713D02*
X150502438Y-91738094D01*
X150502438Y-91738094D02*
X150454819Y-91642856D01*
X150454819Y-91642856D02*
X150454819Y-91404761D01*
X150454819Y-91404761D02*
X150502438Y-91309523D01*
X150502438Y-91309523D02*
X150550057Y-91261904D01*
X150550057Y-91261904D02*
X150645295Y-91214285D01*
X150645295Y-91214285D02*
X150740533Y-91214285D01*
X150740533Y-91214285D02*
X150883390Y-91261904D01*
X150883390Y-91261904D02*
X151454819Y-91833332D01*
X151454819Y-91833332D02*
X151454819Y-91214285D01*
X148833333Y-91359580D02*
X148785714Y-91407200D01*
X148785714Y-91407200D02*
X148642857Y-91454819D01*
X148642857Y-91454819D02*
X148547619Y-91454819D01*
X148547619Y-91454819D02*
X148404762Y-91407200D01*
X148404762Y-91407200D02*
X148309524Y-91311961D01*
X148309524Y-91311961D02*
X148261905Y-91216723D01*
X148261905Y-91216723D02*
X148214286Y-91026247D01*
X148214286Y-91026247D02*
X148214286Y-90883390D01*
X148214286Y-90883390D02*
X148261905Y-90692914D01*
X148261905Y-90692914D02*
X148309524Y-90597676D01*
X148309524Y-90597676D02*
X148404762Y-90502438D01*
X148404762Y-90502438D02*
X148547619Y-90454819D01*
X148547619Y-90454819D02*
X148642857Y-90454819D01*
X148642857Y-90454819D02*
X148785714Y-90502438D01*
X148785714Y-90502438D02*
X148833333Y-90550057D01*
X149785714Y-91454819D02*
X149214286Y-91454819D01*
X149500000Y-91454819D02*
X149500000Y-90454819D01*
X149500000Y-90454819D02*
X149404762Y-90597676D01*
X149404762Y-90597676D02*
X149309524Y-90692914D01*
X149309524Y-90692914D02*
X149214286Y-90740533D01*
X138238095Y-94454819D02*
X138238095Y-95264342D01*
X138238095Y-95264342D02*
X138285714Y-95359580D01*
X138285714Y-95359580D02*
X138333333Y-95407200D01*
X138333333Y-95407200D02*
X138428571Y-95454819D01*
X138428571Y-95454819D02*
X138619047Y-95454819D01*
X138619047Y-95454819D02*
X138714285Y-95407200D01*
X138714285Y-95407200D02*
X138761904Y-95359580D01*
X138761904Y-95359580D02*
X138809523Y-95264342D01*
X138809523Y-95264342D02*
X138809523Y-94454819D01*
X139809523Y-95454819D02*
X139238095Y-95454819D01*
X139523809Y-95454819D02*
X139523809Y-94454819D01*
X139523809Y-94454819D02*
X139428571Y-94597676D01*
X139428571Y-94597676D02*
X139333333Y-94692914D01*
X139333333Y-94692914D02*
X139238095Y-94740533D01*
%TO.C,D1*%
D11*
X137000000Y-89960000D02*
X139685000Y-89960000D01*
X139685000Y-88040000D02*
X137000000Y-88040000D01*
X139685000Y-89960000D02*
X139685000Y-88040000D01*
%TO.C,R1*%
X143252936Y-88265000D02*
X143707064Y-88265000D01*
X143252936Y-89735000D02*
X143707064Y-89735000D01*
%TO.C,J2*%
X153620000Y-87920000D02*
X155000000Y-87920000D01*
X153620000Y-89300000D02*
X153620000Y-87920000D01*
X153620000Y-90570000D02*
X153620000Y-103380000D01*
X153620000Y-90570000D02*
X156380000Y-90570000D01*
X153620000Y-103380000D02*
X156380000Y-103380000D01*
X156380000Y-90570000D02*
X156380000Y-103380000D01*
%TO.C,J1*%
X131415000Y-88415000D02*
X132795000Y-88415000D01*
X131415000Y-89795000D02*
X131415000Y-88415000D01*
X131415000Y-91065000D02*
X131415000Y-103875000D01*
X131415000Y-91065000D02*
X134175000Y-91065000D01*
X131415000Y-103875000D02*
X134175000Y-103875000D01*
X134175000Y-91065000D02*
X134175000Y-103875000D01*
%TO.C,C3*%
X140240000Y-100290000D02*
X140240000Y-103710000D01*
X140240000Y-103710000D02*
X147005000Y-103710000D01*
X147005000Y-100290000D02*
X140240000Y-100290000D01*
%TO.C,C2*%
X151735000Y-94738748D02*
X151735000Y-95261252D01*
X150265000Y-94738748D02*
X150265000Y-95261252D01*
%TO.C,C1*%
X148738748Y-88265000D02*
X149261252Y-88265000D01*
X148738748Y-89735000D02*
X149261252Y-89735000D01*
%TO.C,U1*%
X140227500Y-92995000D02*
X139897500Y-93235000D01*
X139897500Y-92755000D01*
X140227500Y-92995000D01*
G36*
X140227500Y-92995000D02*
G01*
X139897500Y-93235000D01*
X139897500Y-92755000D01*
X140227500Y-92995000D01*
G37*
X146447500Y-98010000D02*
X146097500Y-98010000D01*
X146097500Y-92540000D02*
X146447500Y-92540000D01*
X142177500Y-98010000D02*
X141827500Y-98010000D01*
X141827500Y-92540000D02*
X142177500Y-92540000D01*
%TD*%
M02*
