M48
; DRILL file KiCad 10.0.5 date 2026-09-18T19:06:01
; FORMAT={-:-/ absolute / metric / decimal}
; #@! TF.CreationDate,2026-09-18T19:06:01+05:30
; #@! TF.GenerationSoftware,Kicad,Pcbnew,10.0.5
; #@! TF.FileFunction,MixedPlating,1,2
FMAT,2
METRIC
; #@! TA.AperFunction,Plated,PTH,ComponentDrill
T1C0.200
; #@! TA.AperFunction,Plated,PTH,ViaDrill
T2C0.300
; #@! TA.AperFunction,Plated,PTH,ComponentDrill
T3C1.000
%
G90
G05
T1
X143.137Y-93.475
X143.137Y-94.675
X143.137Y-95.875
X143.137Y-97.075
X144.137Y-93.475
X144.137Y-94.675
X144.137Y-95.875
X144.137Y-97.075
X145.137Y-93.475
X145.137Y-94.675
X145.137Y-95.875
X145.137Y-97.075
T2
X137.0Y-96.0
X139.0Y-92.0
X146.0Y-100.0
X147.0Y-97.6
X148.326Y-96.826
X149.0Y-92.0
X151.0Y-92.0
X151.772Y-95.006
T3
X132.795Y-89.795
X132.795Y-92.335
X132.795Y-94.875
X132.795Y-97.415
X132.795Y-99.955
X132.795Y-102.495
X155.0Y-89.3
X155.0Y-91.84
X155.0Y-94.38
X155.0Y-96.92
X155.0Y-99.46
X155.0Y-102.0
M30
