%TF.GenerationSoftware,KiCad,Pcbnew,10.0.5*%
%TF.CreationDate,2026-09-18T19:05:55+05:30*%
%TF.ProjectId,motor driver,6d6f746f-7220-4647-9269-7665722e6b69,rev?*%
%TF.SameCoordinates,Original*%
%TF.FileFunction,Copper,L2,Bot*%
%TF.FilePolarity,Positive*%
%FSLAX46Y46*%
G04 Gerber Fmt 4.6, Leading zero omitted, Abs format (unit mm)*
G04 Created by KiCad (PCBNEW 10.0.5) date 2026-09-18 19:05:55*
%MOMM*%
%LPD*%
G01*
G04 APERTURE LIST*
%TA.AperFunction,ComponentPad*%
%ADD10R,1.700000X1.700000*%
%TD*%
%TA.AperFunction,ComponentPad*%
%ADD11C,1.700000*%
%TD*%
%TA.AperFunction,HeatsinkPad*%
%ADD12C,0.500000*%
%TD*%
%TA.AperFunction,HeatsinkPad*%
%ADD13R,2.500000X4.100000*%
%TD*%
%TA.AperFunction,ViaPad*%
%ADD14C,0.600000*%
%TD*%
%TA.AperFunction,Conductor*%
%ADD15C,0.200000*%
%TD*%
G04 APERTURE END LIST*
D10*
%TO.P,J2,1,Pin_1_1*%
%TO.N,/AIN1*%
X155000000Y-89300000D03*
D11*
%TO.P,J2,2,Pin_2_2*%
%TO.N,/AIN2*%
X155000000Y-91840000D03*
%TO.P,J2,3,Pin_3_3*%
%TO.N,/VCC*%
X155000000Y-94380000D03*
%TO.P,J2,4,Pin_4_4*%
%TO.N,GND*%
X155000000Y-96920000D03*
%TO.P,J2,5,Pin_5_5*%
%TO.N,/BIN1*%
X155000000Y-99460000D03*
%TO.P,J2,6,Pin_6_6*%
%TO.N,/BIN2*%
X155000000Y-102000000D03*
%TD*%
D10*
%TO.P,J1,1,Pin_1_1*%
%TO.N,/SLEEP*%
X132795000Y-89795000D03*
D11*
%TO.P,J1,2,Pin_2_2*%
%TO.N,/AOUT1*%
X132795000Y-92335000D03*
%TO.P,J1,3,Pin_3_3*%
%TO.N,/AOUT2*%
X132795000Y-94875000D03*
%TO.P,J1,4,Pin_4_4*%
%TO.N,/BOUT1*%
X132795000Y-97415000D03*
%TO.P,J1,5,Pin_5_5*%
%TO.N,/BOUT2*%
X132795000Y-99955000D03*
%TO.P,J1,6,Pin_6_6*%
%TO.N,/FAULT*%
X132795000Y-102495000D03*
%TD*%
D12*
%TO.P,U1,17,GND_17*%
%TO.N,GND*%
X145137500Y-97075000D03*
X145137500Y-95875000D03*
X145137500Y-94675000D03*
X145137500Y-93475000D03*
X144137500Y-97075000D03*
X144137500Y-95875000D03*
D13*
X144137500Y-95275000D03*
D12*
X144137500Y-94675000D03*
X144137500Y-93475000D03*
X143137500Y-97075000D03*
X143137500Y-95875000D03*
X143137500Y-94675000D03*
X143137500Y-93475000D03*
%TD*%
D14*
%TO.N,/VCC*%
X151772469Y-95006214D03*
%TO.N,/AIN2*%
X151000000Y-92000000D03*
%TO.N,/AIN1*%
X149000000Y-92000000D03*
%TO.N,/BIN2*%
X148325735Y-96825735D03*
%TO.N,/SLEEP*%
X139000000Y-92000000D03*
%TO.N,GND*%
X146000000Y-100000000D03*
%TO.N,/BOUT2*%
X137000000Y-96000000D03*
%TO.N,/BIN1*%
X147000000Y-97600000D03*
%TD*%
%TO.N,/VCC*%
D15*
X152398683Y-94380000D02*
X151772469Y-95006214D01*
X155000000Y-94380000D02*
X152398683Y-94380000D01*
%TO.N,/AIN2*%
X155000000Y-91840000D02*
X151160000Y-91840000D01*
X151160000Y-91840000D02*
X151000000Y-92000000D01*
%TO.N,/AIN1*%
X151700000Y-89300000D02*
X149000000Y-92000000D01*
X155000000Y-89300000D02*
X151700000Y-89300000D01*
%TO.N,/BIN2*%
X148400000Y-96900000D02*
X148325735Y-96825735D01*
X153113654Y-96900000D02*
X148400000Y-96900000D01*
%TO.N,/SLEEP*%
X136795000Y-89795000D02*
X139000000Y-92000000D01*
X132795000Y-89795000D02*
X136795000Y-89795000D01*
%TO.N,GND*%
X145137500Y-97075000D02*
X146000000Y-97937500D01*
X146000000Y-97937500D02*
X146000000Y-100000000D01*
%TO.N,/BOUT2*%
X136750000Y-96000000D02*
X137000000Y-96000000D01*
X132795000Y-99955000D02*
X136750000Y-96000000D01*
%TO.N,/BIN2*%
X154523654Y-98310000D02*
X153113654Y-96900000D01*
X156150000Y-100850000D02*
X156150000Y-98983654D01*
X155476346Y-98310000D02*
X154523654Y-98310000D01*
X155000000Y-102000000D02*
X156150000Y-100850000D01*
X156150000Y-98983654D02*
X155476346Y-98310000D01*
%TO.N,/BIN1*%
X153140000Y-97600000D02*
X147000000Y-97600000D01*
X155000000Y-99460000D02*
X153140000Y-97600000D01*
%TD*%
%TA.AperFunction,Conductor*%
%TO.N,GND*%
G36*
X157442539Y-87520185D02*
G01*
X157488294Y-87572989D01*
X157499500Y-87624500D01*
X157499500Y-104375500D01*
X157479815Y-104442539D01*
X157427011Y-104488294D01*
X157375500Y-104499500D01*
X130624500Y-104499500D01*
X130557461Y-104479815D01*
X130511706Y-104427011D01*
X130500500Y-104375500D01*
X130500500Y-88897135D01*
X131444500Y-88897135D01*
X131444500Y-90692870D01*
X131444501Y-90692876D01*
X131450908Y-90752483D01*
X131501202Y-90887328D01*
X131501206Y-90887335D01*
X131587452Y-91002544D01*
X131587455Y-91002547D01*
X131702664Y-91088793D01*
X131702671Y-91088797D01*
X131834082Y-91137810D01*
X131890016Y-91179681D01*
X131914433Y-91245145D01*
X131899582Y-91313418D01*
X131878431Y-91341673D01*
X131764889Y-91455215D01*
X131639951Y-91627179D01*
X131543444Y-91816585D01*
X131477753Y-92018760D01*
X131455979Y-92156239D01*
X131444500Y-92228713D01*
X131444500Y-92441287D01*
X131477754Y-92651243D01*
X131526250Y-92800499D01*
X131543444Y-92853414D01*
X131639951Y-93042820D01*
X131764890Y-93214786D01*
X131915213Y-93365109D01*
X132087182Y-93490050D01*
X132095946Y-93494516D01*
X132146742Y-93542491D01*
X132163536Y-93610312D01*
X132140998Y-93676447D01*
X132095946Y-93715484D01*
X132087182Y-93719949D01*
X131915213Y-93844890D01*
X131764890Y-93995213D01*
X131639951Y-94167179D01*
X131543444Y-94356585D01*
X131543443Y-94356587D01*
X131543443Y-94356588D01*
X131534398Y-94384425D01*
X131477753Y-94558760D01*
X131444500Y-94768713D01*
X131444500Y-94981286D01*
X131460935Y-95085056D01*
X131477754Y-95191243D01*
X131540839Y-95385399D01*
X131543444Y-95393414D01*
X131639951Y-95582820D01*
X131764890Y-95754786D01*
X131915213Y-95905109D01*
X132087182Y-96030050D01*
X132095946Y-96034516D01*
X132146742Y-96082491D01*
X132163536Y-96150312D01*
X132140998Y-96216447D01*
X132095946Y-96255484D01*
X132087182Y-96259949D01*
X131915213Y-96384890D01*
X131764890Y-96535213D01*
X131639951Y-96707179D01*
X131543444Y-96896585D01*
X131477753Y-97098760D01*
X131455996Y-97236130D01*
X131444500Y-97308713D01*
X131444500Y-97521287D01*
X131448031Y-97543582D01*
X131469909Y-97681716D01*
X131477754Y-97731243D01*
X131510978Y-97833497D01*
X131543444Y-97933414D01*
X131639951Y-98122820D01*
X131764890Y-98294786D01*
X131915213Y-98445109D01*
X132087182Y-98570050D01*
X132095946Y-98574516D01*
X132146742Y-98622491D01*
X132163536Y-98690312D01*
X132140998Y-98756447D01*
X132095946Y-98795484D01*
X132087182Y-98799949D01*
X131915213Y-98924890D01*
X131764890Y-99075213D01*
X131639951Y-99247179D01*
X131543444Y-99436585D01*
X131477753Y-99638760D01*
X131444500Y-99848713D01*
X131444500Y-100061286D01*
X131477753Y-100271239D01*
X131543444Y-100473414D01*
X131639951Y-100662820D01*
X131764890Y-100834786D01*
X131915213Y-100985109D01*
X132087182Y-101110050D01*
X132095946Y-101114516D01*
X132146742Y-101162491D01*
X132163536Y-101230312D01*
X132140998Y-101296447D01*
X132095946Y-101335484D01*
X132087182Y-101339949D01*
X131915213Y-101464890D01*
X131764890Y-101615213D01*
X131639951Y-101787179D01*
X131543444Y-101976585D01*
X131477753Y-102178760D01*
X131444500Y-102388713D01*
X131444500Y-102601286D01*
X131477753Y-102811239D01*
X131543444Y-103013414D01*
X131639951Y-103202820D01*
X131764890Y-103374786D01*
X131915213Y-103525109D01*
X132087179Y-103650048D01*
X132087181Y-103650049D01*
X132087184Y-103650051D01*
X132276588Y-103746557D01*
X132478757Y-103812246D01*
X132688713Y-103845500D01*
X132688714Y-103845500D01*
X132901286Y-103845500D01*
X132901287Y-103845500D01*
X133111243Y-103812246D01*
X133313412Y-103746557D01*
X133502816Y-103650051D01*
X133524789Y-103634086D01*
X133674786Y-103525109D01*
X133674788Y-103525106D01*
X133674792Y-103525104D01*
X133825104Y-103374792D01*
X133825106Y-103374788D01*
X133825109Y-103374786D01*
X133950048Y-103202820D01*
X133950047Y-103202820D01*
X133950051Y-103202816D01*
X134046557Y-103013412D01*
X134112246Y-102811243D01*
X134145500Y-102601287D01*
X134145500Y-102388713D01*
X134112246Y-102178757D01*
X134046557Y-101976588D01*
X133950051Y-101787184D01*
X133950049Y-101787181D01*
X133950048Y-101787179D01*
X133825109Y-101615213D01*
X133674786Y-101464890D01*
X133502820Y-101339951D01*
X133502115Y-101339591D01*
X133494054Y-101335485D01*
X133443259Y-101287512D01*
X133426463Y-101219692D01*
X133448999Y-101153556D01*
X133494054Y-101114515D01*
X133502816Y-101110051D01*
X133541721Y-101081785D01*
X133674786Y-100985109D01*
X133674788Y-100985106D01*
X133674792Y-100985104D01*
X133825104Y-100834792D01*
X133825106Y-100834788D01*
X133825109Y-100834786D01*
X133950048Y-100662820D01*
X133950047Y-100662820D01*
X133950051Y-100662816D01*
X134046557Y-100473412D01*
X134112246Y-100271243D01*
X134145500Y-100061287D01*
X134145500Y-99848713D01*
X134112246Y-99638757D01*
X134098506Y-99596473D01*
X134096512Y-99526635D01*
X134128755Y-99470478D01*
X135846657Y-97752577D01*
X142813475Y-97752577D01*
X142918736Y-97796178D01*
X142918740Y-97796179D01*
X143063626Y-97824999D01*
X143063629Y-97825000D01*
X143211371Y-97825000D01*
X143211373Y-97824999D01*
X143356260Y-97796179D01*
X143356275Y-97796175D01*
X143461524Y-97752578D01*
X143461524Y-97752577D01*
X143813475Y-97752577D01*
X143918736Y-97796178D01*
X143918740Y-97796179D01*
X144063626Y-97824999D01*
X144063629Y-97825000D01*
X144211371Y-97825000D01*
X144211373Y-97824999D01*
X144356260Y-97796179D01*
X144356275Y-97796175D01*
X144461524Y-97752578D01*
X144461524Y-97752577D01*
X144813475Y-97752577D01*
X144918736Y-97796178D01*
X144918740Y-97796179D01*
X145063626Y-97824999D01*
X145063629Y-97825000D01*
X145211371Y-97825000D01*
X145211373Y-97824999D01*
X145356260Y-97796179D01*
X145356275Y-97796175D01*
X145461524Y-97752578D01*
X145461524Y-97752577D01*
X145230100Y-97521153D01*
X146199500Y-97521153D01*
X146199500Y-97678846D01*
X146230261Y-97833489D01*
X146230264Y-97833501D01*
X146290602Y-97979172D01*
X146290609Y-97979185D01*
X146378210Y-98110288D01*
X146378213Y-98110292D01*
X146489707Y-98221786D01*
X146489711Y-98221789D01*
X146620814Y-98309390D01*
X146620827Y-98309397D01*
X146766498Y-98369735D01*
X146766503Y-98369737D01*
X146921153Y-98400499D01*
X146921156Y-98400500D01*
X146921158Y-98400500D01*
X147078844Y-98400500D01*
X147078845Y-98400499D01*
X147233497Y-98369737D01*
X147379179Y-98309394D01*
X147379185Y-98309390D01*
X147510875Y-98221398D01*
X147577553Y-98200520D01*
X147579766Y-98200500D01*
X152839903Y-98200500D01*
X152906942Y-98220185D01*
X152927584Y-98236819D01*
X153666241Y-98975476D01*
X153699726Y-99036799D01*
X153696492Y-99101473D01*
X153682753Y-99143757D01*
X153649500Y-99353713D01*
X153649500Y-99566286D01*
X153682753Y-99776239D01*
X153748444Y-99978414D01*
X153844951Y-100167820D01*
X153969890Y-100339786D01*
X154120213Y-100490109D01*
X154292182Y-100615050D01*
X154300946Y-100619516D01*
X154351742Y-100667491D01*
X154368536Y-100735312D01*
X154345998Y-100801447D01*
X154300946Y-100840484D01*
X154292182Y-100844949D01*
X154120213Y-100969890D01*
X153969890Y-101120213D01*
X153844951Y-101292179D01*
X153748444Y-101481585D01*
X153682753Y-101683760D01*
X153649500Y-101893713D01*
X153649500Y-102106286D01*
X153682753Y-102316239D01*
X153748444Y-102518414D01*
X153844951Y-102707820D01*
X153969890Y-102879786D01*
X154120213Y-103030109D01*
X154292179Y-103155048D01*
X154292181Y-103155049D01*
X154292184Y-103155051D01*
X154481588Y-103251557D01*
X154683757Y-103317246D01*
X154893713Y-103350500D01*
X154893714Y-103350500D01*
X155106286Y-103350500D01*
X155106287Y-103350500D01*
X155316243Y-103317246D01*
X155518412Y-103251557D01*
X155707816Y-103155051D01*
X155729789Y-103139086D01*
X155879786Y-103030109D01*
X155879788Y-103030106D01*
X155879792Y-103030104D01*
X156030104Y-102879792D01*
X156030106Y-102879788D01*
X156030109Y-102879786D01*
X156155048Y-102707820D01*
X156155047Y-102707820D01*
X156155051Y-102707816D01*
X156251557Y-102518412D01*
X156317246Y-102316243D01*
X156350500Y-102106287D01*
X156350500Y-101893713D01*
X156317246Y-101683757D01*
X156303506Y-101641473D01*
X156301512Y-101571635D01*
X156333753Y-101515480D01*
X156630520Y-101218716D01*
X156709577Y-101081784D01*
X156750501Y-100929057D01*
X156750501Y-100770942D01*
X156750501Y-100763347D01*
X156750500Y-100763329D01*
X156750500Y-99072714D01*
X156750501Y-99072701D01*
X156750501Y-98904598D01*
X156722460Y-98799949D01*
X156709577Y-98751870D01*
X156634881Y-98622491D01*
X156630524Y-98614944D01*
X156630518Y-98614936D01*
X155963936Y-97948355D01*
X155963934Y-97948352D01*
X155845063Y-97829481D01*
X155845062Y-97829480D01*
X155758250Y-97779360D01*
X155758250Y-97779359D01*
X155758246Y-97779358D01*
X155708131Y-97750423D01*
X155555403Y-97709499D01*
X155487307Y-97709499D01*
X155420268Y-97689814D01*
X155399626Y-97673180D01*
X155129408Y-97402962D01*
X155192993Y-97385925D01*
X155307007Y-97320099D01*
X155400099Y-97227007D01*
X155465925Y-97112993D01*
X155482962Y-97049408D01*
X156115270Y-97681717D01*
X156115270Y-97681716D01*
X156154622Y-97627554D01*
X156251095Y-97438217D01*
X156316757Y-97236130D01*
X156316757Y-97236127D01*
X156350000Y-97026246D01*
X156350000Y-96813753D01*
X156316757Y-96603872D01*
X156316757Y-96603869D01*
X156251095Y-96401782D01*
X156154624Y-96212449D01*
X156115270Y-96158282D01*
X156115269Y-96158282D01*
X155482962Y-96790590D01*
X155465925Y-96727007D01*
X155400099Y-96612993D01*
X155307007Y-96519901D01*
X155192993Y-96454075D01*
X155129409Y-96437037D01*
X155761716Y-95804728D01*
X155707547Y-95765373D01*
X155707547Y-95765372D01*
X155698500Y-95760763D01*
X155647706Y-95712788D01*
X155630912Y-95644966D01*
X155653451Y-95578832D01*
X155698508Y-95539793D01*
X155707816Y-95535051D01*
X155787007Y-95477515D01*
X155879786Y-95410109D01*
X155879788Y-95410106D01*
X155879792Y-95410104D01*
X156030104Y-95259792D01*
X156030106Y-95259788D01*
X156030109Y-95259786D01*
X156155048Y-95087820D01*
X156155047Y-95087820D01*
X156155051Y-95087816D01*
X156251557Y-94898412D01*
X156317246Y-94696243D01*
X156350500Y-94486287D01*
X156350500Y-94273713D01*
X156317246Y-94063757D01*
X156251557Y-93861588D01*
X156155051Y-93672184D01*
X156155049Y-93672181D01*
X156155048Y-93672179D01*
X156030109Y-93500213D01*
X155879786Y-93349890D01*
X155707820Y-93224951D01*
X155707115Y-93224591D01*
X155699054Y-93220485D01*
X155648259Y-93172512D01*
X155631463Y-93104692D01*
X155653999Y-93038556D01*
X155699054Y-92999515D01*
X155707816Y-92995051D01*
X155729789Y-92979086D01*
X155879786Y-92870109D01*
X155879788Y-92870106D01*
X155879792Y-92870104D01*
X156030104Y-92719792D01*
X156030106Y-92719788D01*
X156030109Y-92719786D01*
X156155048Y-92547820D01*
X156155047Y-92547820D01*
X156155051Y-92547816D01*
X156251557Y-92358412D01*
X156317246Y-92156243D01*
X156350500Y-91946287D01*
X156350500Y-91733713D01*
X156317246Y-91523757D01*
X156251557Y-91321588D01*
X156155051Y-91132184D01*
X156155049Y-91132181D01*
X156155048Y-91132179D01*
X156030109Y-90960213D01*
X155916569Y-90846673D01*
X155883084Y-90785350D01*
X155888068Y-90715658D01*
X155929940Y-90659725D01*
X155960915Y-90642810D01*
X156092331Y-90593796D01*
X156207546Y-90507546D01*
X156293796Y-90392331D01*
X156344091Y-90257483D01*
X156350500Y-90197873D01*
X156350499Y-88402128D01*
X156344091Y-88342517D01*
X156293796Y-88207669D01*
X156293795Y-88207668D01*
X156293793Y-88207664D01*
X156207547Y-88092455D01*
X156207544Y-88092452D01*
X156092335Y-88006206D01*
X156092328Y-88006202D01*
X155957482Y-87955908D01*
X155957483Y-87955908D01*
X155897883Y-87949501D01*
X155897881Y-87949500D01*
X155897873Y-87949500D01*
X155897864Y-87949500D01*
X154102129Y-87949500D01*
X154102123Y-87949501D01*
X154042516Y-87955908D01*
X153907671Y-88006202D01*
X153907664Y-88006206D01*
X153792455Y-88092452D01*
X153792452Y-88092455D01*
X153706206Y-88207664D01*
X153706202Y-88207671D01*
X153655908Y-88342517D01*
X153649501Y-88402116D01*
X153649501Y-88402123D01*
X153649500Y-88402135D01*
X153649500Y-88575500D01*
X153629815Y-88642539D01*
X153577011Y-88688294D01*
X153525500Y-88699500D01*
X151786670Y-88699500D01*
X151786654Y-88699499D01*
X151779058Y-88699499D01*
X151620943Y-88699499D01*
X151544579Y-88719961D01*
X151468214Y-88740423D01*
X151468209Y-88740426D01*
X151331290Y-88819475D01*
X151331282Y-88819481D01*
X148985339Y-91165425D01*
X148924016Y-91198910D01*
X148921850Y-91199361D01*
X148766508Y-91230261D01*
X148766498Y-91230264D01*
X148620827Y-91290602D01*
X148620814Y-91290609D01*
X148489711Y-91378210D01*
X148489707Y-91378213D01*
X148378213Y-91489707D01*
X148378210Y-91489711D01*
X148290609Y-91620814D01*
X148290602Y-91620827D01*
X148230264Y-91766498D01*
X148230261Y-91766510D01*
X148199500Y-91921153D01*
X148199500Y-92078846D01*
X148230261Y-92233489D01*
X148230264Y-92233501D01*
X148290602Y-92379172D01*
X148290609Y-92379185D01*
X148378210Y-92510288D01*
X148378213Y-92510292D01*
X148489707Y-92621786D01*
X148489711Y-92621789D01*
X148620814Y-92709390D01*
X148620827Y-92709397D01*
X148766498Y-92769735D01*
X148766503Y-92769737D01*
X148905674Y-92797420D01*
X148921153Y-92800499D01*
X148921156Y-92800500D01*
X148921158Y-92800500D01*
X149078844Y-92800500D01*
X149078845Y-92800499D01*
X149233497Y-92769737D01*
X149379179Y-92709394D01*
X149510289Y-92621789D01*
X149621789Y-92510289D01*
X149709394Y-92379179D01*
X149769737Y-92233497D01*
X149789113Y-92136085D01*
X149800638Y-92078150D01*
X149833023Y-92016239D01*
X149834466Y-92014768D01*
X149987821Y-91861413D01*
X150049142Y-91827931D01*
X150118834Y-91832915D01*
X150174767Y-91874787D01*
X150199184Y-91940251D01*
X150199500Y-91949097D01*
X150199500Y-92078846D01*
X150230261Y-92233489D01*
X150230264Y-92233501D01*
X150290602Y-92379172D01*
X150290609Y-92379185D01*
X150378210Y-92510288D01*
X150378213Y-92510292D01*
X150489707Y-92621786D01*
X150489711Y-92621789D01*
X150620814Y-92709390D01*
X150620827Y-92709397D01*
X150766498Y-92769735D01*
X150766503Y-92769737D01*
X150905674Y-92797420D01*
X150921153Y-92800499D01*
X150921156Y-92800500D01*
X150921158Y-92800500D01*
X151078844Y-92800500D01*
X151078845Y-92800499D01*
X151233497Y-92769737D01*
X151379179Y-92709394D01*
X151510289Y-92621789D01*
X151621789Y-92510289D01*
X151631597Y-92495609D01*
X151685209Y-92450804D01*
X151734700Y-92440500D01*
X153714281Y-92440500D01*
X153781320Y-92460185D01*
X153824765Y-92508205D01*
X153844947Y-92547814D01*
X153844948Y-92547815D01*
X153969890Y-92719786D01*
X154120213Y-92870109D01*
X154292182Y-92995050D01*
X154300946Y-92999516D01*
X154351742Y-93047491D01*
X154368536Y-93115312D01*
X154345998Y-93181447D01*
X154300946Y-93220484D01*
X154292182Y-93224949D01*
X154120213Y-93349890D01*
X153969890Y-93500213D01*
X153844948Y-93672184D01*
X153844947Y-93672185D01*
X153824765Y-93711795D01*
X153776791Y-93762591D01*
X153714281Y-93779500D01*
X152319623Y-93779500D01*
X152278702Y-93790464D01*
X152278702Y-93790465D01*
X152246760Y-93799024D01*
X152166897Y-93820423D01*
X152166892Y-93820426D01*
X152029973Y-93899475D01*
X152029965Y-93899481D01*
X151934239Y-93995208D01*
X151918163Y-94011284D01*
X151918161Y-94011286D01*
X151832924Y-94096523D01*
X151757807Y-94171640D01*
X151696484Y-94205124D01*
X151694318Y-94205575D01*
X151538977Y-94236475D01*
X151538967Y-94236478D01*
X151393296Y-94296816D01*
X151393283Y-94296823D01*
X151262180Y-94384424D01*
X151262176Y-94384427D01*
X151150682Y-94495921D01*
X151150679Y-94495925D01*
X151063078Y-94627028D01*
X151063071Y-94627041D01*
X151002733Y-94772712D01*
X151002730Y-94772724D01*
X150971969Y-94927367D01*
X150971969Y-95085060D01*
X151002730Y-95239703D01*
X151002733Y-95239715D01*
X151063071Y-95385386D01*
X151063078Y-95385399D01*
X151150679Y-95516502D01*
X151150682Y-95516506D01*
X151262176Y-95628000D01*
X151262180Y-95628003D01*
X151393283Y-95715604D01*
X151393296Y-95715611D01*
X151513434Y-95765373D01*
X151538972Y-95775951D01*
X151683638Y-95804727D01*
X151693622Y-95806713D01*
X151693625Y-95806714D01*
X151693627Y-95806714D01*
X151851313Y-95806714D01*
X151851314Y-95806713D01*
X152005966Y-95775951D01*
X152120393Y-95728554D01*
X152151641Y-95715611D01*
X152151641Y-95715610D01*
X152151648Y-95715608D01*
X152282758Y-95628003D01*
X152394258Y-95516503D01*
X152481863Y-95385393D01*
X152542206Y-95239711D01*
X152561582Y-95142299D01*
X152573107Y-95084364D01*
X152605492Y-95022453D01*
X152606998Y-95020919D01*
X152611110Y-95016808D01*
X152672437Y-94983331D01*
X152698780Y-94980500D01*
X153714281Y-94980500D01*
X153781320Y-95000185D01*
X153824765Y-95048205D01*
X153844947Y-95087814D01*
X153844948Y-95087815D01*
X153969890Y-95259786D01*
X154120213Y-95410109D01*
X154292179Y-95535048D01*
X154292181Y-95535049D01*
X154292184Y-95535051D01*
X154301493Y-95539794D01*
X154352290Y-95587766D01*
X154369087Y-95655587D01*
X154346552Y-95721722D01*
X154301505Y-95760760D01*
X154292446Y-95765376D01*
X154292440Y-95765380D01*
X154238282Y-95804727D01*
X154238282Y-95804728D01*
X154870591Y-96437037D01*
X154807007Y-96454075D01*
X154692993Y-96519901D01*
X154599901Y-96612993D01*
X154534075Y-96727007D01*
X154517037Y-96790591D01*
X153884728Y-96158282D01*
X153884727Y-96158282D01*
X153845380Y-96212439D01*
X153748903Y-96401783D01*
X153741728Y-96423867D01*
X153702289Y-96481542D01*
X153637930Y-96508738D01*
X153569084Y-96496822D01*
X153536117Y-96473227D01*
X153482371Y-96419481D01*
X153482363Y-96419475D01*
X153394443Y-96368715D01*
X153394442Y-96368715D01*
X153373731Y-96356757D01*
X153345439Y-96340423D01*
X153192711Y-96299499D01*
X153034597Y-96299499D01*
X153027001Y-96299499D01*
X153026985Y-96299500D01*
X148982940Y-96299500D01*
X148915901Y-96279815D01*
X148895263Y-96263185D01*
X148836024Y-96203946D01*
X148836023Y-96203945D01*
X148836022Y-96203944D01*
X148704920Y-96116344D01*
X148704907Y-96116337D01*
X148559236Y-96055999D01*
X148559224Y-96055996D01*
X148404580Y-96025235D01*
X148404577Y-96025235D01*
X148246893Y-96025235D01*
X148246890Y-96025235D01*
X148092245Y-96055996D01*
X148092233Y-96055999D01*
X147946562Y-96116337D01*
X147946549Y-96116344D01*
X147815446Y-96203945D01*
X147815442Y-96203948D01*
X147703948Y-96315442D01*
X147703945Y-96315446D01*
X147616344Y-96446549D01*
X147616337Y-96446562D01*
X147555999Y-96592233D01*
X147555996Y-96592245D01*
X147525235Y-96746888D01*
X147525235Y-96765525D01*
X147505550Y-96832564D01*
X147452746Y-96878319D01*
X147383588Y-96888263D01*
X147353783Y-96880086D01*
X147233501Y-96830264D01*
X147233489Y-96830261D01*
X147078845Y-96799500D01*
X147078842Y-96799500D01*
X146921158Y-96799500D01*
X146921155Y-96799500D01*
X146766510Y-96830261D01*
X146766498Y-96830264D01*
X146620827Y-96890602D01*
X146620814Y-96890609D01*
X146489711Y-96978210D01*
X146489707Y-96978213D01*
X146378213Y-97089707D01*
X146378210Y-97089711D01*
X146290609Y-97220814D01*
X146290602Y-97220827D01*
X146230264Y-97366498D01*
X146230261Y-97366510D01*
X146199500Y-97521153D01*
X145230100Y-97521153D01*
X145137501Y-97428554D01*
X145137500Y-97428554D01*
X144813475Y-97752577D01*
X144461524Y-97752577D01*
X144137501Y-97428554D01*
X144137500Y-97428554D01*
X143813475Y-97752577D01*
X143461524Y-97752577D01*
X143137501Y-97428554D01*
X143137500Y-97428554D01*
X142813475Y-97752577D01*
X135846657Y-97752577D01*
X136598108Y-97001126D01*
X142387500Y-97001126D01*
X142387500Y-97148873D01*
X142416320Y-97293759D01*
X142416322Y-97293767D01*
X142459921Y-97399024D01*
X142783946Y-97075000D01*
X142783946Y-97074999D01*
X142764056Y-97055109D01*
X143037500Y-97055109D01*
X143037500Y-97094891D01*
X143052724Y-97131645D01*
X143080855Y-97159776D01*
X143117609Y-97175000D01*
X143157391Y-97175000D01*
X143194145Y-97159776D01*
X143222276Y-97131645D01*
X143237500Y-97094891D01*
X143237500Y-97075000D01*
X143491054Y-97075000D01*
X143637500Y-97221446D01*
X143783946Y-97075000D01*
X143764055Y-97055109D01*
X144037500Y-97055109D01*
X144037500Y-97094891D01*
X144052724Y-97131645D01*
X144080855Y-97159776D01*
X144117609Y-97175000D01*
X144157391Y-97175000D01*
X144194145Y-97159776D01*
X144222276Y-97131645D01*
X144237500Y-97094891D01*
X144237500Y-97075000D01*
X144491054Y-97075000D01*
X144637500Y-97221446D01*
X144783946Y-97075000D01*
X144764055Y-97055109D01*
X145037500Y-97055109D01*
X145037500Y-97094891D01*
X145052724Y-97131645D01*
X145080855Y-97159776D01*
X145117609Y-97175000D01*
X145157391Y-97175000D01*
X145194145Y-97159776D01*
X145222276Y-97131645D01*
X145237500Y-97094891D01*
X145237500Y-97074999D01*
X145491054Y-97074999D01*
X145491054Y-97075001D01*
X145815077Y-97399024D01*
X145815078Y-97399024D01*
X145858675Y-97293775D01*
X145858679Y-97293760D01*
X145887499Y-97148873D01*
X145887500Y-97148871D01*
X145887500Y-97001128D01*
X145887499Y-97001126D01*
X145858679Y-96856240D01*
X145858678Y-96856236D01*
X145815077Y-96750975D01*
X145491054Y-97074999D01*
X145237500Y-97074999D01*
X145237500Y-97055109D01*
X145222276Y-97018355D01*
X145194145Y-96990224D01*
X145157391Y-96975000D01*
X145117609Y-96975000D01*
X145080855Y-96990224D01*
X145052724Y-97018355D01*
X145037500Y-97055109D01*
X144764055Y-97055109D01*
X144637500Y-96928554D01*
X144491054Y-97075000D01*
X144237500Y-97075000D01*
X144237500Y-97055109D01*
X144222276Y-97018355D01*
X144194145Y-96990224D01*
X144157391Y-96975000D01*
X144117609Y-96975000D01*
X144080855Y-96990224D01*
X144052724Y-97018355D01*
X144037500Y-97055109D01*
X143764055Y-97055109D01*
X143637500Y-96928554D01*
X143491054Y-97075000D01*
X143237500Y-97075000D01*
X143237500Y-97055109D01*
X143222276Y-97018355D01*
X143194145Y-96990224D01*
X143157391Y-96975000D01*
X143117609Y-96975000D01*
X143080855Y-96990224D01*
X143052724Y-97018355D01*
X143037500Y-97055109D01*
X142764056Y-97055109D01*
X142459921Y-96750974D01*
X142459920Y-96750974D01*
X142416323Y-96856228D01*
X142416320Y-96856240D01*
X142387500Y-97001126D01*
X136598108Y-97001126D01*
X136772181Y-96827053D01*
X136833502Y-96793570D01*
X136884053Y-96793119D01*
X136921157Y-96800500D01*
X136921158Y-96800500D01*
X137078844Y-96800500D01*
X137078845Y-96800499D01*
X137233497Y-96769737D01*
X137379179Y-96709394D01*
X137510289Y-96621789D01*
X137621789Y-96510289D01*
X137645368Y-96475000D01*
X142891054Y-96475000D01*
X143137500Y-96721446D01*
X143383946Y-96475000D01*
X143891054Y-96475000D01*
X144137500Y-96721446D01*
X144383946Y-96475000D01*
X144891054Y-96475000D01*
X145137500Y-96721446D01*
X145383946Y-96475000D01*
X145137500Y-96228554D01*
X144891054Y-96475000D01*
X144383946Y-96475000D01*
X144137500Y-96228554D01*
X143891054Y-96475000D01*
X143383946Y-96475000D01*
X143137500Y-96228554D01*
X142891054Y-96475000D01*
X137645368Y-96475000D01*
X137709394Y-96379179D01*
X137713729Y-96368715D01*
X137742398Y-96299499D01*
X137769737Y-96233497D01*
X137800500Y-96078842D01*
X137800500Y-95921158D01*
X137800500Y-95921155D01*
X137800499Y-95921153D01*
X137780226Y-95819230D01*
X137776625Y-95801126D01*
X142387500Y-95801126D01*
X142387500Y-95948873D01*
X142416320Y-96093759D01*
X142416322Y-96093767D01*
X142459921Y-96199024D01*
X142783946Y-95875000D01*
X142783946Y-95874999D01*
X142764056Y-95855109D01*
X143037500Y-95855109D01*
X143037500Y-95894891D01*
X143052724Y-95931645D01*
X143080855Y-95959776D01*
X143117609Y-95975000D01*
X143157391Y-95975000D01*
X143194145Y-95959776D01*
X143222276Y-95931645D01*
X143237500Y-95894891D01*
X143237500Y-95875000D01*
X143491054Y-95875000D01*
X143637500Y-96021446D01*
X143783946Y-95875000D01*
X143764055Y-95855109D01*
X144037500Y-95855109D01*
X144037500Y-95894891D01*
X144052724Y-95931645D01*
X144080855Y-95959776D01*
X144117609Y-95975000D01*
X144157391Y-95975000D01*
X144194145Y-95959776D01*
X144222276Y-95931645D01*
X144237500Y-95894891D01*
X144237500Y-95875000D01*
X144491054Y-95875000D01*
X144637500Y-96021446D01*
X144783946Y-95875000D01*
X144764055Y-95855109D01*
X145037500Y-95855109D01*
X145037500Y-95894891D01*
X145052724Y-95931645D01*
X145080855Y-95959776D01*
X145117609Y-95975000D01*
X145157391Y-95975000D01*
X145194145Y-95959776D01*
X145222276Y-95931645D01*
X145237500Y-95894891D01*
X145237500Y-95874999D01*
X145491054Y-95874999D01*
X145491054Y-95875001D01*
X145815077Y-96199024D01*
X145815078Y-96199024D01*
X145858675Y-96093775D01*
X145858679Y-96093760D01*
X145887499Y-95948873D01*
X145887500Y-95948871D01*
X145887500Y-95801128D01*
X145887499Y-95801126D01*
X145858679Y-95656240D01*
X145858678Y-95656236D01*
X145815077Y-95550975D01*
X145491054Y-95874999D01*
X145237500Y-95874999D01*
X145237500Y-95855109D01*
X145222276Y-95818355D01*
X145194145Y-95790224D01*
X145157391Y-95775000D01*
X145117609Y-95775000D01*
X145080855Y-95790224D01*
X145052724Y-95818355D01*
X145037500Y-95855109D01*
X144764055Y-95855109D01*
X144637500Y-95728554D01*
X144491054Y-95875000D01*
X144237500Y-95875000D01*
X144237500Y-95855109D01*
X144222276Y-95818355D01*
X144194145Y-95790224D01*
X144157391Y-95775000D01*
X144117609Y-95775000D01*
X144080855Y-95790224D01*
X144052724Y-95818355D01*
X144037500Y-95855109D01*
X143764055Y-95855109D01*
X143637500Y-95728554D01*
X143491054Y-95875000D01*
X143237500Y-95875000D01*
X143237500Y-95855109D01*
X143222276Y-95818355D01*
X143194145Y-95790224D01*
X143157391Y-95775000D01*
X143117609Y-95775000D01*
X143080855Y-95790224D01*
X143052724Y-95818355D01*
X143037500Y-95855109D01*
X142764056Y-95855109D01*
X142459921Y-95550974D01*
X142459920Y-95550974D01*
X142416323Y-95656228D01*
X142416320Y-95656240D01*
X142387500Y-95801126D01*
X137776625Y-95801126D01*
X137769738Y-95766508D01*
X137769737Y-95766507D01*
X137769737Y-95766503D01*
X137769269Y-95765372D01*
X137709397Y-95620827D01*
X137709390Y-95620814D01*
X137621789Y-95489711D01*
X137621786Y-95489707D01*
X137510292Y-95378213D01*
X137510288Y-95378210D01*
X137433258Y-95326740D01*
X137379185Y-95290609D01*
X137379172Y-95290602D01*
X137341505Y-95275000D01*
X142891054Y-95275000D01*
X143137500Y-95521446D01*
X143383946Y-95275000D01*
X143891054Y-95275000D01*
X144137500Y-95521446D01*
X144383946Y-95275000D01*
X144891054Y-95275000D01*
X145137500Y-95521446D01*
X145383946Y-95275000D01*
X145137500Y-95028554D01*
X144891054Y-95275000D01*
X144383946Y-95275000D01*
X144137500Y-95028554D01*
X143891054Y-95275000D01*
X143383946Y-95275000D01*
X143137500Y-95028554D01*
X142891054Y-95275000D01*
X137341505Y-95275000D01*
X137233501Y-95230264D01*
X137233489Y-95230261D01*
X137078845Y-95199500D01*
X137078842Y-95199500D01*
X136921158Y-95199500D01*
X136921155Y-95199500D01*
X136766510Y-95230261D01*
X136766498Y-95230264D01*
X136620827Y-95290602D01*
X136620814Y-95290609D01*
X136489711Y-95378210D01*
X136489707Y-95378213D01*
X136378217Y-95489704D01*
X136378214Y-95489706D01*
X136318860Y-95578534D01*
X136303440Y-95597322D01*
X134357181Y-97543582D01*
X134295858Y-97577067D01*
X134226166Y-97572083D01*
X134170233Y-97530211D01*
X134145816Y-97464747D01*
X134145500Y-97455901D01*
X134145500Y-97308713D01*
X134143132Y-97293760D01*
X134112246Y-97098757D01*
X134046557Y-96896588D01*
X133950051Y-96707184D01*
X133950049Y-96707181D01*
X133950048Y-96707179D01*
X133825109Y-96535213D01*
X133674786Y-96384890D01*
X133502820Y-96259951D01*
X133502115Y-96259591D01*
X133494054Y-96255485D01*
X133443259Y-96207512D01*
X133426463Y-96139692D01*
X133448999Y-96073556D01*
X133494054Y-96034515D01*
X133502816Y-96030051D01*
X133614549Y-95948873D01*
X133674786Y-95905109D01*
X133674788Y-95905106D01*
X133674792Y-95905104D01*
X133825104Y-95754792D01*
X133825106Y-95754788D01*
X133825109Y-95754786D01*
X133950048Y-95582820D01*
X133950047Y-95582820D01*
X133950051Y-95582816D01*
X134046557Y-95393412D01*
X134112246Y-95191243D01*
X134145500Y-94981287D01*
X134145500Y-94768713D01*
X134123059Y-94627028D01*
X134121065Y-94614437D01*
X134118957Y-94601126D01*
X142387500Y-94601126D01*
X142387500Y-94748873D01*
X142416320Y-94893759D01*
X142416322Y-94893767D01*
X142459921Y-94999024D01*
X142783946Y-94675000D01*
X142783946Y-94674999D01*
X142764056Y-94655109D01*
X143037500Y-94655109D01*
X143037500Y-94694891D01*
X143052724Y-94731645D01*
X143080855Y-94759776D01*
X143117609Y-94775000D01*
X143157391Y-94775000D01*
X143194145Y-94759776D01*
X143222276Y-94731645D01*
X143237500Y-94694891D01*
X143237500Y-94675000D01*
X143491054Y-94675000D01*
X143637500Y-94821446D01*
X143783946Y-94675000D01*
X143764055Y-94655109D01*
X144037500Y-94655109D01*
X144037500Y-94694891D01*
X144052724Y-94731645D01*
X144080855Y-94759776D01*
X144117609Y-94775000D01*
X144157391Y-94775000D01*
X144194145Y-94759776D01*
X144222276Y-94731645D01*
X144237500Y-94694891D01*
X144237500Y-94675000D01*
X144491054Y-94675000D01*
X144637500Y-94821446D01*
X144783946Y-94675000D01*
X144764055Y-94655109D01*
X145037500Y-94655109D01*
X145037500Y-94694891D01*
X145052724Y-94731645D01*
X145080855Y-94759776D01*
X145117609Y-94775000D01*
X145157391Y-94775000D01*
X145194145Y-94759776D01*
X145222276Y-94731645D01*
X145237500Y-94694891D01*
X145237500Y-94674999D01*
X145491054Y-94674999D01*
X145491054Y-94675001D01*
X145815077Y-94999024D01*
X145815078Y-94999024D01*
X145858675Y-94893775D01*
X145858679Y-94893760D01*
X145887499Y-94748873D01*
X145887500Y-94748871D01*
X145887500Y-94601128D01*
X145887499Y-94601126D01*
X145858679Y-94456240D01*
X145858678Y-94456236D01*
X145815077Y-94350975D01*
X145491054Y-94674999D01*
X145237500Y-94674999D01*
X145237500Y-94655109D01*
X145222276Y-94618355D01*
X145194145Y-94590224D01*
X145157391Y-94575000D01*
X145117609Y-94575000D01*
X145080855Y-94590224D01*
X145052724Y-94618355D01*
X145037500Y-94655109D01*
X144764055Y-94655109D01*
X144637500Y-94528554D01*
X144491054Y-94675000D01*
X144237500Y-94675000D01*
X144237500Y-94655109D01*
X144222276Y-94618355D01*
X144194145Y-94590224D01*
X144157391Y-94575000D01*
X144117609Y-94575000D01*
X144080855Y-94590224D01*
X144052724Y-94618355D01*
X144037500Y-94655109D01*
X143764055Y-94655109D01*
X143637500Y-94528554D01*
X143491054Y-94675000D01*
X143237500Y-94675000D01*
X143237500Y-94655109D01*
X143222276Y-94618355D01*
X143194145Y-94590224D01*
X143157391Y-94575000D01*
X143117609Y-94575000D01*
X143080855Y-94590224D01*
X143052724Y-94618355D01*
X143037500Y-94655109D01*
X142764056Y-94655109D01*
X142459921Y-94350974D01*
X142459920Y-94350974D01*
X142416323Y-94456228D01*
X142416320Y-94456240D01*
X142387500Y-94601126D01*
X134118957Y-94601126D01*
X134117230Y-94590224D01*
X134112246Y-94558757D01*
X134046557Y-94356588D01*
X133950051Y-94167184D01*
X133950049Y-94167181D01*
X133950048Y-94167179D01*
X133898714Y-94096523D01*
X133883077Y-94075000D01*
X142891054Y-94075000D01*
X143137500Y-94321446D01*
X143383946Y-94075000D01*
X143891054Y-94075000D01*
X144137500Y-94321446D01*
X144383946Y-94075000D01*
X144891054Y-94075000D01*
X145137500Y-94321446D01*
X145383946Y-94075000D01*
X145137500Y-93828554D01*
X144891054Y-94075000D01*
X144383946Y-94075000D01*
X144137500Y-93828554D01*
X143891054Y-94075000D01*
X143383946Y-94075000D01*
X143137500Y-93828554D01*
X142891054Y-94075000D01*
X133883077Y-94075000D01*
X133825109Y-93995213D01*
X133674786Y-93844890D01*
X133502820Y-93719951D01*
X133502115Y-93719591D01*
X133494054Y-93715485D01*
X133443259Y-93667512D01*
X133426463Y-93599692D01*
X133448999Y-93533556D01*
X133494054Y-93494515D01*
X133502816Y-93490051D01*
X133625212Y-93401126D01*
X142387500Y-93401126D01*
X142387500Y-93548873D01*
X142416320Y-93693759D01*
X142416322Y-93693767D01*
X142459921Y-93799024D01*
X142783946Y-93475000D01*
X142783946Y-93474999D01*
X142764056Y-93455109D01*
X143037500Y-93455109D01*
X143037500Y-93494891D01*
X143052724Y-93531645D01*
X143080855Y-93559776D01*
X143117609Y-93575000D01*
X143157391Y-93575000D01*
X143194145Y-93559776D01*
X143222276Y-93531645D01*
X143237500Y-93494891D01*
X143237500Y-93475000D01*
X143491054Y-93475000D01*
X143637500Y-93621446D01*
X143783946Y-93475000D01*
X143764055Y-93455109D01*
X144037500Y-93455109D01*
X144037500Y-93494891D01*
X144052724Y-93531645D01*
X144080855Y-93559776D01*
X144117609Y-93575000D01*
X144157391Y-93575000D01*
X144194145Y-93559776D01*
X144222276Y-93531645D01*
X144237500Y-93494891D01*
X144237500Y-93475000D01*
X144491054Y-93475000D01*
X144637500Y-93621446D01*
X144783946Y-93475000D01*
X144764055Y-93455109D01*
X145037500Y-93455109D01*
X145037500Y-93494891D01*
X145052724Y-93531645D01*
X145080855Y-93559776D01*
X145117609Y-93575000D01*
X145157391Y-93575000D01*
X145194145Y-93559776D01*
X145222276Y-93531645D01*
X145237500Y-93494891D01*
X145237500Y-93474999D01*
X145491054Y-93474999D01*
X145491054Y-93475001D01*
X145815077Y-93799024D01*
X145815078Y-93799024D01*
X145858675Y-93693775D01*
X145858679Y-93693760D01*
X145887499Y-93548873D01*
X145887500Y-93548871D01*
X145887500Y-93401128D01*
X145887499Y-93401126D01*
X145858679Y-93256240D01*
X145858678Y-93256236D01*
X145815077Y-93150975D01*
X145491054Y-93474999D01*
X145237500Y-93474999D01*
X145237500Y-93455109D01*
X145222276Y-93418355D01*
X145194145Y-93390224D01*
X145157391Y-93375000D01*
X145117609Y-93375000D01*
X145080855Y-93390224D01*
X145052724Y-93418355D01*
X145037500Y-93455109D01*
X144764055Y-93455109D01*
X144637500Y-93328554D01*
X144491054Y-93475000D01*
X144237500Y-93475000D01*
X144237500Y-93455109D01*
X144222276Y-93418355D01*
X144194145Y-93390224D01*
X144157391Y-93375000D01*
X144117609Y-93375000D01*
X144080855Y-93390224D01*
X144052724Y-93418355D01*
X144037500Y-93455109D01*
X143764055Y-93455109D01*
X143637500Y-93328554D01*
X143491054Y-93475000D01*
X143237500Y-93475000D01*
X143237500Y-93455109D01*
X143222276Y-93418355D01*
X143194145Y-93390224D01*
X143157391Y-93375000D01*
X143117609Y-93375000D01*
X143080855Y-93390224D01*
X143052724Y-93418355D01*
X143037500Y-93455109D01*
X142764056Y-93455109D01*
X142459921Y-93150974D01*
X142459920Y-93150974D01*
X142416323Y-93256228D01*
X142416320Y-93256240D01*
X142387500Y-93401126D01*
X133625212Y-93401126D01*
X133674786Y-93365109D01*
X133674788Y-93365106D01*
X133674792Y-93365104D01*
X133825104Y-93214792D01*
X133825106Y-93214788D01*
X133825109Y-93214786D01*
X133950048Y-93042820D01*
X133950047Y-93042820D01*
X133950051Y-93042816D01*
X134046557Y-92853412D01*
X134112246Y-92651243D01*
X134145500Y-92441287D01*
X134145500Y-92228713D01*
X134112246Y-92018757D01*
X134046557Y-91816588D01*
X133950051Y-91627184D01*
X133950049Y-91627181D01*
X133950048Y-91627179D01*
X133825109Y-91455213D01*
X133711569Y-91341673D01*
X133678084Y-91280350D01*
X133683068Y-91210658D01*
X133724940Y-91154725D01*
X133755915Y-91137810D01*
X133887331Y-91088796D01*
X134002546Y-91002546D01*
X134088796Y-90887331D01*
X134139091Y-90752483D01*
X134145500Y-90692873D01*
X134145500Y-90519500D01*
X134165185Y-90452461D01*
X134217989Y-90406706D01*
X134269500Y-90395500D01*
X136494903Y-90395500D01*
X136561942Y-90415185D01*
X136582584Y-90431819D01*
X138165425Y-92014660D01*
X138198910Y-92075983D01*
X138199361Y-92078149D01*
X138230261Y-92233491D01*
X138230264Y-92233501D01*
X138290602Y-92379172D01*
X138290609Y-92379185D01*
X138378210Y-92510288D01*
X138378213Y-92510292D01*
X138489707Y-92621786D01*
X138489711Y-92621789D01*
X138620814Y-92709390D01*
X138620827Y-92709397D01*
X138766498Y-92769735D01*
X138766503Y-92769737D01*
X138905674Y-92797420D01*
X138921153Y-92800499D01*
X138921156Y-92800500D01*
X138921158Y-92800500D01*
X139078844Y-92800500D01*
X139078845Y-92800499D01*
X139094324Y-92797420D01*
X142813474Y-92797420D01*
X142813474Y-92797421D01*
X143137500Y-93121446D01*
X143137501Y-93121446D01*
X143461524Y-92797421D01*
X143461522Y-92797420D01*
X143813474Y-92797420D01*
X143813474Y-92797421D01*
X144137500Y-93121446D01*
X144137501Y-93121446D01*
X144461524Y-92797421D01*
X144461522Y-92797420D01*
X144813474Y-92797420D01*
X144813474Y-92797421D01*
X145137500Y-93121446D01*
X145137501Y-93121446D01*
X145461524Y-92797421D01*
X145356267Y-92753822D01*
X145356259Y-92753820D01*
X145211372Y-92725000D01*
X145063628Y-92725000D01*
X144918740Y-92753820D01*
X144918728Y-92753823D01*
X144813474Y-92797420D01*
X144461522Y-92797420D01*
X144356267Y-92753822D01*
X144356259Y-92753820D01*
X144211372Y-92725000D01*
X144063628Y-92725000D01*
X143918740Y-92753820D01*
X143918728Y-92753823D01*
X143813474Y-92797420D01*
X143461522Y-92797420D01*
X143356267Y-92753822D01*
X143356259Y-92753820D01*
X143211372Y-92725000D01*
X143063628Y-92725000D01*
X142918740Y-92753820D01*
X142918728Y-92753823D01*
X142813474Y-92797420D01*
X139094324Y-92797420D01*
X139233497Y-92769737D01*
X139344701Y-92723675D01*
X139344702Y-92723675D01*
X139362792Y-92716181D01*
X139379179Y-92709394D01*
X139510289Y-92621789D01*
X139621789Y-92510289D01*
X139709394Y-92379179D01*
X139769737Y-92233497D01*
X139800500Y-92078842D01*
X139800500Y-91921158D01*
X139800500Y-91921155D01*
X139800499Y-91921153D01*
X139781956Y-91827931D01*
X139769737Y-91766503D01*
X139712028Y-91627179D01*
X139709397Y-91620827D01*
X139709390Y-91620814D01*
X139621789Y-91489711D01*
X139621786Y-91489707D01*
X139510292Y-91378213D01*
X139510288Y-91378210D01*
X139379185Y-91290609D01*
X139379172Y-91290602D01*
X139233501Y-91230264D01*
X139233491Y-91230261D01*
X139078149Y-91199361D01*
X139016238Y-91166976D01*
X139014660Y-91165425D01*
X137282590Y-89433355D01*
X137282588Y-89433352D01*
X137163717Y-89314481D01*
X137163716Y-89314480D01*
X137076904Y-89264360D01*
X137076904Y-89264359D01*
X137076900Y-89264358D01*
X137026785Y-89235423D01*
X136874057Y-89194499D01*
X136715943Y-89194499D01*
X136708347Y-89194499D01*
X136708331Y-89194500D01*
X134269499Y-89194500D01*
X134202460Y-89174815D01*
X134156705Y-89122011D01*
X134145499Y-89070500D01*
X134145499Y-88897129D01*
X134145498Y-88897123D01*
X134145497Y-88897116D01*
X134139091Y-88837517D01*
X134102878Y-88740426D01*
X134088797Y-88702671D01*
X134088793Y-88702664D01*
X134002547Y-88587455D01*
X134002544Y-88587452D01*
X133887335Y-88501206D01*
X133887328Y-88501202D01*
X133752482Y-88450908D01*
X133752483Y-88450908D01*
X133692883Y-88444501D01*
X133692881Y-88444500D01*
X133692873Y-88444500D01*
X133692864Y-88444500D01*
X131897129Y-88444500D01*
X131897123Y-88444501D01*
X131837516Y-88450908D01*
X131702671Y-88501202D01*
X131702664Y-88501206D01*
X131587455Y-88587452D01*
X131587452Y-88587455D01*
X131501206Y-88702664D01*
X131501202Y-88702671D01*
X131450908Y-88837517D01*
X131444501Y-88897116D01*
X131444501Y-88897123D01*
X131444500Y-88897135D01*
X130500500Y-88897135D01*
X130500500Y-87624500D01*
X130520185Y-87557461D01*
X130572989Y-87511706D01*
X130624500Y-87500500D01*
X157375500Y-87500500D01*
X157442539Y-87520185D01*
G37*
%TD.AperFunction*%
%TD*%
M02*
